<svg width="56" height="56" viewBox="0 0 56 56" fill="none" xmlns="http://www.w3.org/2000/svg">
  <rect width="56" height="56" rx="12" fill="#faf7f2"/>
  <circle cx="28" cy="28" r="26" fill="url(#bg)" opacity="0.1"/>
  <path d="M6 40 C6 22 16 12 28 12 C40 12 50 22 50 40" stroke="url(#a)" stroke-width="3" stroke-linecap="round" fill="none"/>
  <path d="M12 40 C12 26 19 18 28 18 C37 18 44 26 44 40" stroke="url(#b)" stroke-width="1.8" stroke-linecap="round" fill="none" opacity="0.5"/>
  <line x1="4" y1="40" x2="52" y2="40" stroke="#b8926a" stroke-width="2.2" stroke-linecap="round"/>
  <line x1="16" y1="40" x2="18" y2="26" stroke="#b8926a" stroke-width="1.2" stroke-linecap="round" opacity="0.5"/>
  <line x1="22" y1="40" x2="23" y2="19" stroke="#b8926a" stroke-width="1.2" stroke-linecap="round" opacity="0.5"/>
  <line x1="40" y1="40" x2="38" y2="26" stroke="#b8926a" stroke-width="1.2" stroke-linecap="round" opacity="0.5"/>
  <line x1="34" y1="40" x2="33" y2="19" stroke="#b8926a" stroke-width="1.2" stroke-linecap="round" opacity="0.5"/>
  <path d="M28 40 C28 34 28 28 28 21" stroke="#5e8c6a" stroke-width="2.2" stroke-linecap="round"/>
  <path d="M28 30 C24 27 20 28 19 31 C21 32 25 31 28 30Z" fill="#5e8c6a"/>
  <path d="M28 26 C32 23 36 24 37 27 C35 28 31 27 28 26Z" fill="#7ab89a"/>
  <path d="M28 21 C26 19 26 16 28 15 C30 16 30 19 28 21Z" fill="#5e8c6a"/>
  <defs>
    <linearGradient id="a" x1="6" y1="40" x2="50" y2="40" gradientUnits="userSpaceOnUse">
      <stop offset="0%" stop-color="#3a7ca5"/>
      <stop offset="40%" stop-color="#2a5c3a"/>
      <stop offset="100%" stop-color="#3a7ca5"/>
    </linearGradient>
    <linearGradient id="b" x1="12" y1="40" x2="44" y2="40" gradientUnits="userSpaceOnUse">
      <stop offset="0%" stop-color="#3a7ca5"/>
      <stop offset="50%" stop-color="#5e8c6a"/>
      <stop offset="100%" stop-color="#3a7ca5"/>
    </linearGradient>
    <radialGradient id="bg" cx="50%" cy="60%" r="50%">
      <stop offset="0%" stop-color="#5e8c6a"/>
      <stop offset="100%" stop-color="#3a7ca5"/>
    </radialGradient>
  </defs>
</svg>
